<svg width="37" height="37" viewBox="0 0 37 37" fill="none" xmlns="http://www.w3.org/2000/svg">
<g clip-path="url(#clip0_1_77)">
<path d="M21.712 20.3704C21.1757 19.6396 20.3898 19.1311 19.5034 18.9413V15.5388C20.0776 15.602 20.6549 15.6332 21.2326 15.6324C23.6153 15.6324 27.1321 15.1127 29.7759 12.4624C33.2252 9.01312 33.0719 4.0776 32.8458 2.11716C32.8142 1.80425 32.6756 1.51184 32.4533 1.28933C32.2311 1.06683 31.9388 0.927871 31.6259 0.895947C29.6642 0.669892 24.7299 0.516591 21.2807 3.96587C20.0699 5.19412 19.1833 6.70394 18.7005 8.35964C18.2166 6.70354 17.3286 5.1937 16.1165 3.96587C12.6672 0.516591 7.73299 0.669892 5.77126 0.895947C5.45838 0.927871 5.16611 1.06683 4.94384 1.28933C4.72158 1.51184 4.58293 1.80425 4.55134 2.11716C4.32529 4.0776 4.17199 9.01312 7.62127 12.4624C10.2651 15.1062 13.7819 15.6324 16.1646 15.6324C16.7418 15.6326 17.3186 15.6013 17.8925 15.5388V18.9387C17.0049 19.1312 16.2189 19.643 15.6839 20.3769L4.56174 35.8681C4.49879 35.9555 4.46121 36.0586 4.45314 36.166C4.44507 36.2734 4.46683 36.381 4.51602 36.4768C4.5652 36.5726 4.6399 36.653 4.73188 36.709C4.82385 36.7651 4.92952 36.7946 5.03723 36.7944H32.3638C32.4715 36.7946 32.5772 36.7651 32.6692 36.709C32.7612 36.653 32.8359 36.5726 32.885 36.4768C32.9342 36.381 32.956 36.2734 32.9479 36.166C32.9399 36.0586 32.9023 35.9555 32.8393 35.8681L21.712 20.3704ZM27.2477 5.34039C27.4016 5.19154 27.6082 5.1099 27.8223 5.11343C28.0363 5.11696 28.2402 5.20538 28.389 5.35922C28.5379 5.51307 28.6195 5.71975 28.616 5.93378C28.6125 6.14782 28.524 6.35169 28.3702 6.50054L19.5073 15.0672V12.8184L27.2477 5.34039ZM9.02956 6.50054C8.87571 6.35169 8.7873 6.14782 8.78376 5.93378C8.78023 5.71975 8.86187 5.51307 9.01072 5.35922C9.15957 5.20538 9.36344 5.11696 9.57748 5.11343C9.79151 5.1099 9.99819 5.19154 10.152 5.34039L17.8925 12.8184V15.0633L9.02956 6.50054Z" fill="#F25C05"/>
</g>
<defs>
<clipPath id="clip0_1_77">
<rect width="36" height="36" fill="white" transform="translate(0.699707 0.794434)"/>
</clipPath>
</defs>
</svg>
