<svg width="37" height="37" viewBox="0 0 37 37" fill="none" xmlns="http://www.w3.org/2000/svg">
<g clip-path="url(#clip0_1_83)">
<path d="M25.5444 9.49009L25.8414 8.88415L29.0336 7.96112L31.112 3.75897C31.1439 3.69405 31.1563 3.62128 31.1478 3.54944C31.1393 3.47759 31.1101 3.40976 31.0639 3.35412C31.0177 3.29848 30.9563 3.25742 30.8872 3.23589C30.8182 3.21437 30.7443 3.2133 30.6747 3.23282L28.8993 3.73776C28.5049 3.84981 28.0829 3.81067 27.7159 3.628C27.3489 3.44533 27.0632 3.13227 26.9149 2.75009L26.2463 1.03328C26.2201 0.965584 26.1748 0.90698 26.1158 0.864629C26.0569 0.822278 25.9869 0.798013 25.9144 0.7948C25.8419 0.791587 25.77 0.809563 25.7075 0.846534C25.645 0.883505 25.5947 0.937869 25.5626 1.00298L23.4863 5.20109L24.7083 8.3479L24.4174 8.9397C22.5748 8.12429 20.5821 7.70325 18.5671 7.70359H18.556C10.5365 7.70965 4.01363 14.2396 4.0207 22.2591C4.02777 30.2786 10.5506 36.7944 18.5631 36.7944H18.5742C21.8045 36.7935 24.9425 35.7171 27.4932 33.735C30.0439 31.753 31.8621 28.978 32.6608 25.8481C33.4596 22.7181 33.1936 19.4113 31.9046 16.4493C30.6157 13.4874 28.3772 11.0388 25.5424 9.49009H25.5444ZM28.2711 31.9349C27.002 33.2136 25.4918 34.2279 23.828 34.919C22.1642 35.6101 20.3799 35.9644 18.5782 35.9613H18.5671C11.0111 35.9613 4.85991 29.8161 4.85385 22.2581C4.8478 14.7001 10.993 8.5418 18.558 8.53574H18.5681C20.4551 8.53445 22.3217 8.92512 24.0498 9.68297L22.5915 12.648C21.3163 12.1177 19.9493 11.8431 18.5681 11.8401C18.5655 11.8406 18.5627 11.8406 18.5601 11.8401C15.7993 11.841 13.152 12.9386 11.2005 14.8914C9.24904 16.8443 8.15323 19.4923 8.15417 22.2531C8.15511 25.0138 9.25271 27.6611 11.2055 29.6126C13.1583 31.5641 15.8064 32.6599 18.5671 32.6589H18.5742C21.3347 32.6568 23.9814 31.5583 25.932 29.6049C27.8827 27.6516 28.9777 25.0035 28.976 22.243C28.976 21.8875 28.9569 21.536 28.9215 21.1846C28.6818 18.8015 27.6216 16.5757 25.9221 14.8879C25.2651 14.2319 24.5237 13.6661 23.7176 13.2055L25.1768 10.2384C27.0405 11.262 28.6403 12.7053 29.8496 14.4541C31.059 16.2029 31.8447 18.2091 32.1447 20.3141C32.4446 22.4191 32.2504 24.5649 31.5776 26.5819C30.9048 28.5988 29.7717 30.4315 28.2681 31.9349H28.2711ZM18.5762 28.0973C17.7223 28.0978 16.8786 27.9112 16.1045 27.5506C15.3304 27.1901 14.6447 26.6644 14.0956 26.0104C13.5464 25.3564 13.1473 24.5901 12.9261 23.7653C12.7049 22.9405 12.6671 22.0772 12.8153 21.2362C12.9635 20.3953 13.2942 19.597 13.784 18.8975C14.2739 18.198 14.911 17.6143 15.6506 17.1875C16.3903 16.7607 17.2144 16.501 18.0651 16.4269C18.9158 16.3527 19.7725 16.4658 20.5748 16.7583L18.0087 21.9743C17.9661 22.0486 17.9391 22.1307 17.9295 22.2158C17.9199 22.3008 17.9278 22.3869 17.9527 22.4688C17.9776 22.5507 18.0189 22.6266 18.0743 22.6919C18.1296 22.7571 18.1977 22.8104 18.2744 22.8484C18.3511 22.8863 18.4348 22.9082 18.5203 22.9126C18.6057 22.9171 18.6912 22.9039 18.7714 22.8741C18.8516 22.8443 18.9248 22.7983 18.9866 22.7391C19.0484 22.6799 19.0974 22.6086 19.1306 22.5298L21.6978 17.3127C22.7676 17.9897 23.5886 18.9959 24.0373 20.1797C24.486 21.3636 24.5382 22.6611 24.1859 23.8772C23.8336 25.0932 23.096 26.162 22.084 26.9227C21.0719 27.6834 19.8402 28.0949 18.5742 28.0953L18.5762 28.0973Z" fill="#F25C05"/>
</g>
<defs>
<clipPath id="clip0_1_83">
<rect width="36" height="36" fill="white" transform="translate(0.566589 0.794434)"/>
</clipPath>
</defs>
</svg>
