<svg width="37" height="37" viewBox="0 0 37 37" fill="none" xmlns="http://www.w3.org/2000/svg">
<g clip-path="url(#clip0_1_89)">
<path d="M19.9346 5.34593V5.26756H20.1536C20.7468 5.26756 21.3157 5.03192 21.7351 4.61248C22.1545 4.19305 22.3902 3.62417 22.3902 3.031C22.3902 2.43782 22.1545 1.86894 21.7351 1.44951C21.3157 1.03007 20.7468 0.794434 20.1536 0.794434H16.7214C16.1282 0.794434 15.5594 1.03007 15.1399 1.44951C14.7205 1.86894 14.4848 2.43782 14.4848 3.031C14.4848 3.62417 14.7205 4.19305 15.1399 4.61248C15.5594 5.03192 16.1282 5.26756 16.7214 5.26756H16.9404V5.34593C8.94971 6.1025 2.67307 12.8494 2.67307 21.034C2.67307 29.7251 9.74346 36.7944 18.4335 36.7944C27.1235 36.7944 34.1939 29.7251 34.1939 21.034C34.1979 12.8494 27.9253 6.1025 19.9346 5.34593ZM18.4375 35.8902C10.2458 35.8902 3.58135 29.2257 3.58135 21.034C3.58135 12.8423 10.2458 6.17886 18.4375 6.17886C26.6292 6.17886 33.2937 12.8433 33.2937 21.034C33.2937 29.2247 26.6292 35.8902 18.4375 35.8902Z" fill="#F25C05"/>
<path d="M18.4375 9.04865C16.068 9.04865 13.7516 9.75125 11.7813 11.0676C9.81105 12.384 8.27534 14.255 7.36837 16.4441C6.46139 18.6333 6.22388 21.0422 6.68587 23.3662C7.14785 25.6903 8.28859 27.8253 9.96384 29.5011C11.6391 31.1769 13.7736 32.3183 16.0976 32.7811C18.4215 33.2439 20.8305 33.0072 23.0199 32.1009C25.2093 31.1947 27.0808 29.6596 28.3979 27.6898C29.7149 25.7199 30.4183 23.4038 30.4191 21.0342C30.4164 17.857 29.1534 14.8106 26.9071 12.5635C24.6608 10.3165 21.6148 9.05237 18.4375 9.04865ZM24.0139 22.032H23.9676L18.4094 21.6301C18.2813 21.6208 18.1592 21.5721 18.0598 21.4909C17.9603 21.4096 17.8884 21.2996 17.8538 21.1759L15.7981 13.8714C15.7759 13.7923 15.7695 13.7095 15.7793 13.6279C15.7892 13.5463 15.815 13.4674 15.8553 13.3957C15.8956 13.3241 15.9496 13.261 16.0143 13.2103C16.0789 13.1595 16.1529 13.1219 16.2321 13.0998C16.3113 13.0776 16.394 13.0713 16.4757 13.0811C16.5573 13.0909 16.6362 13.1167 16.7078 13.157C16.8525 13.2384 16.959 13.3739 17.0037 13.5338L18.9399 20.4173L24.0641 20.7891C24.2273 20.798 24.3805 20.8705 24.4908 20.9911C24.6011 21.1118 24.6596 21.2709 24.6538 21.4342C24.648 21.5976 24.5784 21.7521 24.4598 21.8646C24.3413 21.9772 24.1833 22.0387 24.0199 22.036L24.0139 22.032Z" fill="#F25C05"/>
</g>
<defs>
<clipPath id="clip0_1_89">
<rect width="36" height="36" fill="white" transform="translate(0.433472 0.794434)"/>
</clipPath>
</defs>
</svg>
